HIERARCHY
ROOT Hips
{
	OFFSET -0.001795 -0.223333 0.028219
	CHANNELS 6 Xposition Yposition Zposition Zrotation Yrotation Xrotation 
	JOINT LeftUpLeg
	{
		OFFSET 0.069520 -0.091406 -0.006815
		CHANNELS 3 Zrotation Yrotation Xrotation
		JOINT LeftLeg
		{
			OFFSET 0.034277 -0.375199 -0.004496
			CHANNELS 3 Zrotation Yrotation Xrotation
			JOINT LeftFoot
			{
				OFFSET -0.013596 -0.397961 -0.043693
				CHANNELS 3 Zrotation Yrotation Xrotation
				JOINT LeftToe
				{
					OFFSET 0.026358 -0.055791 0.119288
					CHANNELS 3 Zrotation Yrotation Xrotation
					End Site
					{
						OFFSET 0.000000 0.000000 0.000000
					}
				}
			}
		}
	}
	JOINT RightUpLeg
	{
		OFFSET -0.067670 -0.090522 -0.004320
		CHANNELS 3 Zrotation Yrotation Xrotation
		JOINT RightLeg
		{
			OFFSET -0.038290 -0.382569 -0.008850
			CHANNELS 3 Zrotation Yrotation Xrotation
			JOINT RightFoot
			{
				OFFSET 0.015774 -0.398415 -0.042312
				CHANNELS 3 Zrotation Yrotation Xrotation
				JOINT RightToe
				{
					OFFSET -0.025372 -0.048144 0.123348
					CHANNELS 3 Zrotation Yrotation Xrotation
					End Site
					{
						OFFSET 0.000000 0.000000 0.000000
					}
				}
			}
		}
	}
	JOINT Spine
	{
		OFFSET -0.002533 0.108963 -0.026696
		CHANNELS 3 Zrotation Yrotation Xrotation
		JOINT Spine1
		{
			OFFSET 0.005487 0.135180 0.001092
			CHANNELS 3 Zrotation Yrotation Xrotation
			JOINT Spine2
			{
				OFFSET 0.001457 0.052922 0.025425
				CHANNELS 3 Zrotation Yrotation Xrotation
				JOINT Neck
				{
					OFFSET -0.002778 0.213870 -0.042857
					CHANNELS 3 Zrotation Yrotation Xrotation
					JOINT Head
					{
						OFFSET 0.005152 0.064970 0.051349
						CHANNELS 3 Zrotation Yrotation Xrotation
						End Site
						{
							OFFSET 0.000000 0.000000 0.000000
						}
					}
				}
				JOINT LeftShoulder
				{
					OFFSET 0.078845 0.121749 -0.034090
					CHANNELS 3 Zrotation Yrotation Xrotation
					JOINT LeftArm
					{
						OFFSET 0.090977 0.030469 -0.008868
						CHANNELS 3 Zrotation Yrotation Xrotation
						JOINT LeftForeArm
						{
							OFFSET 0.259612 -0.012772 -0.027456
							CHANNELS 3 Zrotation Yrotation Xrotation
							JOINT LeftHand
							{
								OFFSET 0.249234 0.008986 -0.001171
								CHANNELS 3 Zrotation Yrotation Xrotation
								End Site
								{
									OFFSET 0.000000 0.000000 0.000000
								}
							}
						}
					}
				}
				JOINT RightShoulder
				{
					OFFSET -0.081759 0.118833 -0.038615
					CHANNELS 3 Zrotation Yrotation Xrotation
					JOINT RightArm
					{
						OFFSET -0.096012 0.032551 -0.009143
						CHANNELS 3 Zrotation Yrotation Xrotation
						JOINT RightForeArm
						{
							OFFSET -0.253742 -0.013329 -0.021401
							CHANNELS 3 Zrotation Yrotation Xrotation
							JOINT RightHand
							{
								OFFSET -0.255298 0.007772 -0.005559
								CHANNELS 3 Zrotation Yrotation Xrotation
								End Site
								{
									OFFSET 0.000000 0.000000 0.000000
								}
							}
						}
					}
				}
			}
		}
	}
}
MOTION
Frames: 12
Frame Time: 0.050000
-0.006763 0.962153 0.093640 -1.797610 -15.044838 4.737266 5.496797 -0.051694 -2.789620 -2.701260 0.384863 0.184883 4.508405 10.472460 14.249830 0.000000 0.000000 0.000000 -2.136675 0.749097 -7.632955 0.710220 0.206525 5.594286 1.276542 -7.873881 19.304546 0.000000 0.000000 0.000000 -5.049359 0.178068 0.798437 10.815736 -2.226548 -22.360787 -4.083892 -7.223899 25.129104 7.238750 -5.781866 -19.442637 0.000000 0.000000 0.000000 -24.357182 9.960814 -3.025043 -53.359595 -2.577476 -7.841229 -11.768573 -47.893220 10.894910 0.000000 0.000000 0.000000 12.966359 0.264207 -3.620124 53.935711 9.103435 -3.508206 165.121238 80.150713 159.759455 0.000000 0.000000 0.000000 
-0.006522 0.963268 0.092046 -1.667852 -16.518375 4.601812 5.250205 -0.023200 -2.368907 -2.783745 0.407646 0.123243 5.018425 11.124971 14.402580 0.000000 0.000000 0.000000 -1.936811 0.735255 -7.465318 0.156363 0.243012 4.967938 1.682040 -7.535921 19.346106 0.000000 0.000000 0.000000 -4.986681 0.179968 0.258949 9.902225 -2.049659 -22.269879 -3.218881 -4.922141 25.187381 7.660065 -5.922782 -18.988919 0.000000 0.000000 0.000000 -24.922960 9.041067 -2.760749 -52.638927 -3.475504 -7.470634 -11.124697 -44.758778 9.440367 0.000000 0.000000 0.000000 12.964211 3.811583 -1.727741 48.857613 18.109508 0.409990 -82.393805 79.088034 -72.959744 0.000000 0.000000 0.000000 
-0.006431 0.963765 0.089928 -1.379239 -17.104771 4.144622 4.986585 -0.013719 -2.172715 -2.965752 0.442843 0.713809 5.187565 11.325753 14.017751 0.000000 0.000000 0.000000 -2.283106 0.725803 -7.357893 0.249811 0.239101 5.049267 1.923577 -7.324850 19.513700 0.000000 0.000000 0.000000 -5.000913 0.176595 0.019426 9.507448 -1.963492 -22.340734 -3.055554 -2.919977 25.380285 8.404592 -6.092965 -19.759890 0.000000 0.000000 0.000000 -24.188284 8.383238 -2.739577 -53.187068 -3.632556 -7.383581 -10.320936 -42.714248 8.418571 0.000000 0.000000 0.000000 12.016646 6.481659 -0.014482 44.131537 28.090465 3.590394 -56.344283 64.160922 -37.229028 0.000000 0.000000 0.000000 
-0.006702 0.964477 0.087570 -1.422657 -17.080261 3.990096 5.072314 -0.012540 -2.295961 -3.086344 0.466380 1.244892 5.270520 11.452070 13.587050 0.000000 0.000000 0.000000 -1.939564 0.724724 -7.365516 -0.293060 0.291508 4.890295 2.199100 -7.242209 20.349099 0.000000 0.000000 0.000000 -4.651505 0.157736 0.137010 8.736025 -1.753676 -22.715836 -2.451836 -1.621603 25.333667 8.546661 -6.065464 -19.462225 0.000000 0.000000 0.000000 -23.932775 7.811850 -2.681886 -53.572077 -3.027515 -7.639462 -9.255056 -41.420609 7.565010 0.000000 0.000000 0.000000 10.835963 8.707244 1.377980 40.359527 36.846034 5.693250 -48.903735 49.143031 -22.925217 0.000000 0.000000 0.000000 
-0.007537 0.964203 0.085431 -1.357822 -16.694516 4.009747 5.143672 -0.030395 -2.659579 -3.187808 0.489395 2.124363 4.963147 10.945165 12.089066 0.000000 0.000000 0.000000 -1.888130 0.714174 -7.262308 -0.388303 0.296853 4.816614 2.169946 -6.930702 19.623167 0.000000 0.000000 0.000000 -4.763175 0.162315 -0.002410 8.707172 -1.706097 -23.023511 -2.506755 -1.367578 25.677159 8.833857 -6.221546 -19.389432 0.000000 0.000000 0.000000 -23.760460 7.657431 -2.686132 -54.190789 -2.981670 -7.725872 -8.023937 -39.899685 6.739618 0.000000 0.000000 0.000000 9.526705 9.651488 2.041628 38.377300 41.939331 6.587522 -50.695122 42.943769 -20.329401 0.000000 0.000000 0.000000 
-0.009025 0.963909 0.083573 -1.370229 -15.952798 4.157008 5.624573 -0.039121 -3.219881 -3.579609 0.561297 2.897463 4.391777 10.003886 11.015101 0.000000 0.000000 0.000000 -1.842632 0.726551 -7.397467 -0.119680 0.277968 5.046784 1.757693 -7.194495 19.004918 0.000000 0.000000 0.000000 -5.218315 0.181589 -0.208811 9.019908 -1.796915 -22.784128 -2.471492 -1.941216 25.583635 9.155417 -6.326910 -20.135988 0.000000 0.000000 0.000000 -23.366530 7.890640 -2.814391 -55.156901 -2.696361 -7.883055 -7.874774 -39.438978 6.637597 0.000000 0.000000 0.000000 9.520315 9.409895 1.933166 40.029006 42.893367 7.338839 -55.836565 44.118427 -23.370502 0.000000 0.000000 0.000000 
-0.010925 0.963581 0.081959 -1.565042 -15.725783 4.220501 5.841640 -0.039471 -3.479950 -3.460126 0.541148 3.108622 4.562738 10.313365 10.965303 0.000000 0.000000 0.000000 -1.693228 0.700599 -7.131170 0.017174 0.239962 4.690341 2.100101 -6.432471 18.583175 0.000000 0.000000 0.000000 -5.672438 0.200065 -0.246214 9.635990 -1.938023 -22.701289 -2.513658 -2.623660 25.826409 8.682730 -6.071132 -20.542695 0.000000 0.000000 0.000000 -24.001293 8.204311 -2.876855 -55.321702 -2.839970 -7.917974 -6.835986 -39.345489 6.315205 0.000000 0.000000 0.000000 10.436400 8.658590 1.417343 44.587400 40.738965 7.885977 -63.135971 49.831584 -30.944561 0.000000 0.000000 0.000000 
-0.013021 0.963118 0.080538 -1.717592 -15.628606 4.213207 5.938686 -0.048843 -3.882686 -3.338960 0.520718 3.263191 5.170715 11.389145 11.863551 0.000000 0.000000 0.000000 -1.823708 0.658418 -6.685579 0.528546 0.156363 4.224155 2.557276 -5.368647 17.927598 0.000000 0.000000 0.000000 -6.276176 0.224365 -0.358400 10.162838 -2.064026 -22.585659 -2.519586 -3.643519 26.193384 7.997679 -5.665344 -21.606015 0.000000 0.000000 0.000000 -24.543489 8.620618 -2.896445 -55.910154 -2.972498 -7.988438 -6.216284 -39.692000 6.289379 0.000000 0.000000 0.000000 11.463967 7.317251 0.523114 50.089717 35.529350 7.150091 -69.851511 58.983773 -42.341931 0.000000 0.000000 0.000000 
-0.014978 0.963093 0.079299 -1.974939 -15.318138 4.111663 6.294262 -0.028265 -3.853142 -3.203743 0.490153 3.073661 5.208244 11.501810 12.432449 0.000000 0.000000 0.000000 -1.402806 0.629362 -6.412881 0.392247 0.183580 4.471838 2.708673 -4.674487 17.072160 0.000000 0.000000 0.000000 -6.651582 0.237854 -0.092156 10.636303 -2.186542 -22.451070 -2.521119 -4.794342 26.417058 7.479928 -5.485861 -21.802316 0.000000 0.000000 0.000000 -25.514025 9.129778 -2.974753 -55.385377 -3.647844 -7.775519 -6.344652 -40.919040 6.698354 0.000000 0.000000 0.000000 12.416844 5.851878 -0.480545 54.167646 28.151427 4.644978 -73.636016 69.853691 -54.897590 0.000000 0.000000 0.000000 
-0.016590 0.963121 0.078204 -1.989306 -15.681207 3.980968 6.150221 -0.023988 -3.655656 -2.997011 0.452847 2.705758 5.819000 12.494256 13.253420 0.000000 0.000000 0.000000 -1.478266 0.610914 -6.219564 0.454236 0.175137 4.424748 3.300084 -3.551603 16.716692 0.000000 0.000000 0.000000 -6.553079 0.234383 0.094680 10.811074 -2.216989 -22.515348 -2.923524 -5.454884 26.689151 6.681332 -5.114756 -22.054710 0.000000 0.000000 0.000000 -25.586431 9.538607 -3.003979 -55.154265 -4.290017 -7.524823 -6.788045 -42.179059 7.251153 0.000000 0.000000 0.000000 13.485759 3.969370 -1.748220 57.106564 20.107043 1.170634 -64.937524 81.288177 -57.662016 0.000000 0.000000 0.000000 
-0.018042 0.963120 0.076934 -2.082937 -15.803434 3.773365 6.272760 -0.006081 -3.497615 -2.774295 0.415101 2.639544 5.838298 12.520197 13.734969 0.000000 0.000000 0.000000 -1.052106 0.581973 -5.964813 0.041268 0.224068 4.467840 3.383275 -3.237395 16.314432 0.000000 0.000000 0.000000 -6.656673 0.239729 0.502636 11.106413 -2.314568 -22.314748 -3.140409 -6.407168 26.458424 6.039508 -4.956503 -21.068792 0.000000 0.000000 0.000000 -26.480822 9.922988 -2.971622 -54.302434 -4.740910 -7.397954 -7.040458 -44.884813 8.102121 0.000000 0.000000 0.000000 13.907582 3.015414 -2.512923 58.785414 12.681624 -2.375461 10.872329 83.925300 8.573510 0.000000 0.000000 0.000000 
-0.019414 0.963169 0.075524 -1.935314 -16.375138 3.468516 6.090235 0.004372 -3.251091 -2.576318 0.385862 2.575482 6.106838 12.898947 14.448057 0.000000 0.000000 0.000000 -0.999977 0.562584 -5.783055 -0.316522 0.270448 4.544998 3.797660 -2.446620 15.982338 0.000000 0.000000 0.000000 -6.471056 0.231058 0.866630 11.129904 -2.346751 -22.179208 -3.477461 -6.799961 26.455948 5.353534 -4.623076 -21.308501 0.000000 0.000000 0.000000 -26.720929 10.194157 -2.919913 -53.662215 -5.527847 -7.110990 -8.235370 -46.924471 9.245529 0.000000 0.000000 0.000000 14.276736 2.094885 -3.207547 60.002349 6.251027 -5.649769 45.064261 78.721168 35.819510 0.000000 0.000000 0.000000 
